<?xml version="1.0"?>
<svg xmlns="http://www.w3.org/2000/svg" xmlns:lc="http://www.librecad.org" xmlns:xlink="http://www.w3.org/1999/xlink" width="283mm" height="32mm" viewBox="0 0 283 32">
    <g lc:layername="0" lc:is_locked="false" lc:is_construction="true" fill="none" stroke="black" stroke-width="1"/>
    <g lc:layername="lneck" lc:is_locked="false" lc:is_construction="false" fill="none" stroke="black" stroke-width="1">
        <path d="M86,0 Q110.29950574,7.96044767 136,7 "/>
        <path d="M66,30 Q78.30742525,26.49357955 91,25 "/>
    </g>
    <g lc:layername="ltip" lc:is_locked="false" lc:is_construction="false" fill="none" stroke="black" stroke-width="1">
        <line x1="86" y1="0" x2="1" y2="16"/>
        <line x1="1" y1="18" x2="66" y2="30"/>
        <path d="M1,16 Q-1,17 1,18 "/>
    </g>
    <g lc:layername="middle" lc:is_locked="false" lc:is_construction="false" fill="none" stroke="black" stroke-width="1">
        <path d="M196,32 Q171.70049426,24.03955233 146,25 "/>
        <line x1="91" y1="25" x2="146" y2="25"/>
        <line x1="191" y1="7" x2="136" y2="7"/>
    </g>
    <g lc:layername="rneck" lc:is_locked="false" lc:is_construction="false" fill="none" stroke="black" stroke-width="1">
        <path d="M216,2 Q203.69257475,5.50642045 191,7 "/>
    </g>
    <g lc:layername="rtip" lc:is_locked="false" lc:is_construction="false" fill="none" stroke="black" stroke-width="1">
        <path d="M281,14 Q285,15 281,16 "/>
        <line x1="281" y1="16" x2="196" y2="32"/>
        <line x1="216" y1="2" x2="281" y2="14"/>
    </g>
</svg>
