<?xml version="1.0"?>
<svg xmlns="http://www.w3.org/2000/svg" xmlns:lc="http://www.librecad.org" xmlns:xlink="http://www.w3.org/1999/xlink" width="293mm" height="37mm" viewBox="0 0 293 37">
    <g lc:layername="0" lc:is_locked="false" lc:is_construction="false" fill="none" stroke="black" stroke-width="1">
        <line x1="221" y1="5" x2="291" y2="12"/>
        <line x1="291" y1="14" x2="204" y2="37"/>
        <path d="M221,5 Q196.18920379,9.56759495 171,10 "/>
        <path d="M204,37 Q178.24709722,27.68928614 151,27 "/>
        <line x1="88" y1="0" x2="1" y2="23"/>
        <line x1="1" y1="25" x2="71" y2="32"/>
        <path d="M88,0 Q113.75290278,9.31071386 141,10 "/>
        <path d="M71,32 Q95.81079621,27.43240505 121,27 "/>
        <line x1="141" y1="10" x2="171" y2="10"/>
        <line x1="121" y1="27" x2="151" y2="27"/>
        <path d="M1,23 Q-1,24 1,25 "/>
        <path d="M291,12 Q295,13 291,14 "/>
    </g>
</svg>
