<?xml version="1.0"?>
<svg xmlns="http://www.w3.org/2000/svg" xmlns:lc="http://www.librecad.org" xmlns:xlink="http://www.w3.org/1999/xlink" width="283mm" height="31.5mm" viewBox="0 0 283 31.5">
    <g lc:layername="0" lc:is_locked="false" lc:is_construction="false" fill="none" stroke="black" stroke-width="1"/>
    <g lc:layername="lneck" lc:is_locked="false" lc:is_construction="false" fill="none" stroke="black" stroke-width="1">
        <path d="M86.5,0 Q110.8710455,7.54008714 136.5,6.75 "/>
        <path d="M66.5,28.5 Q86.38394389,25.38586974 106.5,24.75 "/>
    </g>
    <g lc:layername="ltip" lc:is_locked="false" lc:is_construction="false" fill="none" stroke="black" stroke-width="1">
        <line x1="86.5" y1="0" x2="1.5" y2="15"/>
        <line x1="1.5" y1="16.5" x2="66.5" y2="28.5"/>
        <path d="M1.5,15 Q-1.5,15.75 1.5,16.5 "/>
    </g>
    <g lc:layername="middle" lc:is_locked="false" lc:is_construction="false" fill="none" stroke="black" stroke-width="1">
        <line x1="106.5" y1="24.75" x2="146.5" y2="24.75"/>
        <line x1="136.5" y1="6.75" x2="176.5" y2="6.75"/>
    </g>
    <g lc:layername="rneck" lc:is_locked="false" lc:is_construction="false" fill="none" stroke="black" stroke-width="1">
        <path d="M216.5,3 Q196.61605611,6.11413026 176.5,6.75 "/>
        <path d="M196.5,31.5 Q172.1289545,23.95991286 146.5,24.75 "/>
    </g>
    <g lc:layername="rtip" lc:is_locked="false" lc:is_construction="false" fill="none" stroke="black" stroke-width="1">
        <line x1="216.5" y1="3" x2="281.5" y2="15"/>
        <line x1="281.5" y1="16.5" x2="196.5" y2="31.5"/>
        <path d="M281.5,15 Q284.5,15.75 281.5,16.5 "/>
    </g>
</svg>
