<?xml version="1.0"?>
<svg xmlns="http://www.w3.org/2000/svg" xmlns:lc="http://www.librecad.org" xmlns:xlink="http://www.w3.org/1999/xlink" width="291mm" height="36mm" viewBox="0 0 291 36">
    <g lc:layername="0" lc:is_locked="false" lc:is_construction="false" fill="none" stroke="black" stroke-width="1">
        <line x1="220.5" y1="5" x2="290.5" y2="12"/>
        <line x1="290.5" y1="13" x2="203.5" y2="36"/>
        <path d="M203.5,36 Q177.74709722,26.68928614 150.5,26 "/>
        <path d="M220.5,5 Q195.68920379,9.56759495 170.5,10 "/>
        <line x1="87.5" y1="0" x2="0.5" y2="23"/>
        <line x1="0.5" y1="24" x2="70.5" y2="31"/>
        <path d="M70.5,31 Q95.31079621,26.43240505 120.5,26 "/>
        <path d="M87.5,0 Q113.25290278,9.31071386 140.5,10 "/>
        <line x1="140.5" y1="10" x2="170.5" y2="10"/>
        <line x1="120.5" y1="26" x2="150.5" y2="26"/>
        <path d="M0.5,23 Q-0.5,23.5 0.5,24 "/>
        <path d="M290.5,12 Q291.5,12.5 290.5,13 "/>
    </g>
</svg>
